<svg xmlns="http://www.w3.org/2000/svg" width="220" height="220" viewBox="0 0 220 220" role="img" data-character="orange" data-stage="4"><title>가지 귤싹</title><ellipse cx="110" cy="199" rx="52" ry="5" fill="#d9d2c1" stroke="none" stroke-width="2"/><ellipse cx="110" cy="184" rx="58" ry="9" fill="#e8dfcf" stroke="none" stroke-width="2"/><path d="M61 184q19-5 34 0m27 0q22-5 36 0" fill="none" stroke="#d1c0a7" stroke-width="1.3" stroke-linecap="round" stroke-linejoin="round"/><g data-part="roots"><path d="M110 173q-1 12 5 23m-5-13-11 7m12-5 10 6" fill="none" stroke="#c3a57b" stroke-width="1.8" stroke-linecap="round" stroke-linejoin="round"/><path d="M99 169q-8 13-21 20m8-8-2 11m35-22q10 14 26 19m-9-8 2 10" fill="none" stroke="#c3a57b" stroke-width="1.5" stroke-linecap="round" stroke-linejoin="round"/></g><path d="M110 177Q108 137 110 70" fill="none" stroke="#9a8063" stroke-width="4" stroke-linecap="round" stroke-linejoin="round"/><path d="M110 132 77 99m33 20 35-25m-35 13-18-28" fill="none" stroke="#9a8063" stroke-width="2.5" stroke-linecap="round" stroke-linejoin="round"/><g transform="translate(79 107) rotate(-75) scale(0.78)"><path d="M0 0Q-5-27 21-32Q25-8 0 0Z" fill="#8da96c" stroke="#698357" stroke-width="1.8" stroke-linecap="round" stroke-linejoin="round"/><path d="M0 0 15-23" fill="none" stroke="#698357" stroke-width="1.2" stroke-linecap="round" stroke-linejoin="round"/></g><g transform="translate(140 104) rotate(25) scale(0.8)"><path d="M0 0Q-5-27 21-32Q25-8 0 0Z" fill="#8da96c" stroke="#698357" stroke-width="1.8" stroke-linecap="round" stroke-linejoin="round"/><path d="M0 0 15-23" fill="none" stroke="#698357" stroke-width="1.2" stroke-linecap="round" stroke-linejoin="round"/></g><g transform="translate(110 84) rotate(-10) scale(0.6)"><path d="M0 0Q-5-27 21-32Q25-8 0 0Z" fill="#8da96c" stroke="#698357" stroke-width="1.8" stroke-linecap="round" stroke-linejoin="round"/><path d="M0 0 15-23" fill="none" stroke="#698357" stroke-width="1.2" stroke-linecap="round" stroke-linejoin="round"/></g><ellipse cx="110" cy="157" rx="27" ry="23" fill="#b8c998" stroke="#839d70" stroke-width="1.7"/><g transform="translate(110 153) scale(0.68)"><g class="sproutEyes"><path d="M-25-3q6 5 12 0m26 0q6 5 12 0" fill="none" stroke="#594940" stroke-width="2.5" stroke-linecap="round" stroke-linejoin="round"/></g><path d="M-7 15q7-7 14 0" fill="none" stroke="#594940" stroke-width="2" stroke-linecap="round" stroke-linejoin="round"/><ellipse cx="-29" cy="11" rx="6" ry="2.8" fill="#e6a0a5" stroke="none" stroke-width="2"/><ellipse cx="29" cy="11" rx="6" ry="2.8" fill="#e6a0a5" stroke="none" stroke-width="2"/><path d="M-27 6q-5 7 0 10q5-3 0-10Z" fill="#b0c9d0" stroke="none" stroke-width="2.4" stroke-linecap="round" stroke-linejoin="round"/></g></svg>