<svg xmlns="http://www.w3.org/2000/svg" width="220" height="220" viewBox="45 95 130 130" role="img" data-character="peach" data-stage="1"><title>잠든 복숭아씨싹</title><style>.sproutEyes{transform-box:fill-box;transform-origin:center;animation:sproutBlink 5.2s infinite}@keyframes sproutBlink{0%,42%,46%,100%{transform:scaleY(1)}44%{transform:scaleY(.08)}}@media(prefers-reduced-motion:reduce){.sproutEyes{animation:none}}</style><ellipse cx="110" cy="199" rx="33" ry="5" fill="#d9d2c1" stroke="none" stroke-width="2"/><ellipse cx="110" cy="184" rx="58" ry="9" fill="#e8dfcf" stroke="none" stroke-width="2"/><path d="M61 184q19-5 34 0m27 0q22-5 36 0" fill="none" stroke="#d1c0a7" stroke-width="1.3" stroke-linecap="round" stroke-linejoin="round"/><path d="M110 126Q86 128 83 153Q84 178 110 185Q136 177 137 153Q133 128 110 126Z" fill="#b78d67" stroke="#a78862" stroke-width="2.4" stroke-linecap="round" stroke-linejoin="round"/><path d="M94 138q-8 13 0 28m32-30q8 14-2 28m-22-37q-5 13-3 17m12 16q4 9 0 16" fill="none" stroke="#8f6b49" stroke-width="1.2" stroke-linecap="round" stroke-linejoin="round"/><g transform="translate(110 157) scale(0.7)"><g class="sproutEyes"><ellipse cx="-19" cy="-1" rx="3.5" ry="5" fill="#594940" stroke="none" stroke-width="2"/><ellipse cx="19" cy="-1" rx="3.5" ry="5" fill="#594940" stroke="none" stroke-width="2"/><ellipse cx="-20" cy="-3" rx="1.1" ry="1.1" fill="#fff" stroke="none" stroke-width="2"/><ellipse cx="18" cy="-3" rx="1.1" ry="1.1" fill="#fff" stroke="none" stroke-width="2"/></g><path d="M-7 11q7 8 14 0" fill="none" stroke="#594940" stroke-width="2.2" stroke-linecap="round" stroke-linejoin="round"/><ellipse cx="-29" cy="11" rx="6" ry="2.8" fill="#e6a0a5" stroke="none" stroke-width="2"/><ellipse cx="29" cy="11" rx="6" ry="2.8" fill="#e6a0a5" stroke="none" stroke-width="2"/></g></svg>