<svg xmlns="http://www.w3.org/2000/svg" width="220" height="220" viewBox="0 0 220 220" role="img" data-character="camellia" data-stage="3"><title>겹꽃 동백싹</title><ellipse cx="110" cy="199" rx="52" ry="5" fill="#d9d2c1" stroke="none" stroke-width="2"/><path d="M110 143V191" fill="none" stroke="#789863" stroke-width="4" stroke-linecap="round" stroke-linejoin="round"/><g transform="translate(107 174) rotate(-100) scale(0.55)"><path d="M0 0Q-5-27 21-32Q25-8 0 0Z" fill="#789863" stroke="#698357" stroke-width="1.8" stroke-linecap="round" stroke-linejoin="round"/><path d="M0 0 15-23" fill="none" stroke="#698357" stroke-width="1.2" stroke-linecap="round" stroke-linejoin="round"/></g><g transform="translate(110 177) rotate(28) scale(0.7)"><path d="M0 0Q-5-27 21-32Q25-8 0 0Z" fill="#789863" stroke="#698357" stroke-width="1.8" stroke-linecap="round" stroke-linejoin="round"/><path d="M0 0 15-23" fill="none" stroke="#698357" stroke-width="1.2" stroke-linecap="round" stroke-linejoin="round"/></g><g><g transform="translate(110 116) rotate(18)"><ellipse cx="0" cy="-17" rx="22" ry="24" fill="#ce7e89" stroke="#9c5b66" stroke-width="1.6"/></g><g transform="translate(110 116) rotate(90)"><ellipse cx="0" cy="-17" rx="22" ry="24" fill="#ce7e89" stroke="#9c5b66" stroke-width="1.6"/></g><g transform="translate(110 116) rotate(162)"><ellipse cx="0" cy="-17" rx="22" ry="24" fill="#ce7e89" stroke="#9c5b66" stroke-width="1.6"/></g><g transform="translate(110 116) rotate(234)"><ellipse cx="0" cy="-17" rx="22" ry="24" fill="#ce7e89" stroke="#9c5b66" stroke-width="1.6"/></g><g transform="translate(110 116) rotate(306)"><ellipse cx="0" cy="-17" rx="22" ry="24" fill="#ce7e89" stroke="#9c5b66" stroke-width="1.6"/></g></g><ellipse cx="110" cy="120" rx="23" ry="23" fill="#e6b2b2" stroke="#9c5b66" stroke-width="1.7"/><g transform="translate(110 119) scale(0.92)"><path d="M-25-3q6 5 12 0m26 0q6 5 12 0" fill="none" stroke="#594940" stroke-width="2.5" stroke-linecap="round" stroke-linejoin="round"/><path d="M-7 15q7-7 14 0" fill="none" stroke="#594940" stroke-width="2" stroke-linecap="round" stroke-linejoin="round"/><ellipse cx="-29" cy="11" rx="6" ry="2.8" fill="#e68f95" stroke="none" stroke-width="2"/><ellipse cx="29" cy="11" rx="6" ry="2.8" fill="#e68f95" stroke="none" stroke-width="2"/><path d="M-27 6q-5 7 0 10q5-3 0-10Z" fill="#b0c9d0" stroke="none" stroke-width="2.4" stroke-linecap="round" stroke-linejoin="round"/></g></svg>