<svg xmlns="http://www.w3.org/2000/svg" width="220" height="220" viewBox="0 0 220 220" role="img" data-character="pear" data-stage="3"><title>노릇 배싹</title><ellipse cx="110" cy="199" rx="52" ry="5" fill="#d9d2c1" stroke="none" stroke-width="2"/><path d="M110 102C94.4 102 95 119 90 127C71 140 69 178 90 186C106 195 132 192 143 179C151 161 130 131 126 125C119 118 125.6 102 110 102Z" fill="#d6ce93" stroke="#a69d62" stroke-width="2.4" stroke-linecap="round" stroke-linejoin="round"/><path d="M110 102q-4-15 6-21" fill="none" stroke="#8a7050" stroke-width="3.5" stroke-linecap="round" stroke-linejoin="round"/><g transform="translate(114 95) rotate(55) scale(0.66)"><path d="M0 0Q-10-22 4-49Q22-15 0 0Z" fill="#8aa370" stroke="#6c875b" stroke-width="1.8" stroke-linecap="round" stroke-linejoin="round"/><path d="M0 0 4-36" fill="none" stroke="#6c875b" stroke-width="1" stroke-linecap="round" stroke-linejoin="round"/></g><ellipse cx="88" cy="155" rx="1.4" ry="1.4" fill="#b69e67" stroke="none" stroke-width="2"/><ellipse cx="94" cy="172" rx="1.4" ry="1.4" fill="#b69e67" stroke="none" stroke-width="2"/><ellipse cx="126" cy="177" rx="1.4" ry="1.4" fill="#b69e67" stroke="none" stroke-width="2"/><ellipse cx="139" cy="159" rx="1.4" ry="1.4" fill="#b69e67" stroke="none" stroke-width="2"/><ellipse cx="110" cy="184" rx="1.4" ry="1.4" fill="#b69e67" stroke="none" stroke-width="2"/><ellipse cx="133" cy="140" rx="1.4" ry="1.4" fill="#b69e67" stroke="none" stroke-width="2"/><g transform="translate(110 147) scale(0.9500000000000001)"><path d="M-25-2h13m25 0h13" fill="none" stroke="#594940" stroke-width="2.5" stroke-linecap="round" stroke-linejoin="round"/><ellipse cx="-18" cy="1" rx="2.2" ry="3.2" fill="#594940" stroke="none" stroke-width="2"/><ellipse cx="19" cy="1" rx="2.2" ry="3.2" fill="#594940" stroke="none" stroke-width="2"/><path d="M-6 12h12" fill="none" stroke="#594940" stroke-width="2" stroke-linecap="round" stroke-linejoin="round"/><ellipse cx="-29" cy="11" rx="6" ry="2.8" fill="#e68f95" stroke="none" stroke-width="2"/><ellipse cx="29" cy="11" rx="6" ry="2.8" fill="#e68f95" stroke="none" stroke-width="2"/></g></svg>