<svg xmlns="http://www.w3.org/2000/svg" width="220" height="220" viewBox="0 0 220 220" role="img" data-character="sea-lavender" data-stage="3"><title>물결 해국싹</title><ellipse cx="110" cy="199" rx="52" ry="5" fill="#d9d2c1" stroke="none" stroke-width="2"/><path d="M110 139Q116 167 110 193" fill="none" stroke="#7b9674" stroke-width="3" stroke-linecap="round" stroke-linejoin="round"/><g transform="translate(112 181) rotate(38) scale(0.65)"><path d="M0 0Q-5-27 21-32Q25-8 0 0Z" fill="#789863" stroke="#698357" stroke-width="1.8" stroke-linecap="round" stroke-linejoin="round"/><path d="M0 0 15-23" fill="none" stroke="#698357" stroke-width="1.2" stroke-linecap="round" stroke-linejoin="round"/></g><g transform="translate(109 183) rotate(-100) scale(0.6)"><path d="M0 0Q-5-27 21-32Q25-8 0 0Z" fill="#789863" stroke="#698357" stroke-width="1.8" stroke-linecap="round" stroke-linejoin="round"/><path d="M0 0 15-23" fill="none" stroke="#698357" stroke-width="1.2" stroke-linecap="round" stroke-linejoin="round"/></g><path d="M111 175Q162 163 166 135" fill="none" stroke="#7b9674" stroke-width="2.5" stroke-linecap="round" stroke-linejoin="round"/><ellipse cx="166" cy="130" rx="9" ry="12" fill="#b1a0c7" stroke="#857393" stroke-width="2"/><g><g transform="translate(110 117) rotate(12)"><ellipse cx="0" cy="-21" rx="5" ry="28" fill="#b1a0c7" stroke="#857393" stroke-width="1.6"/></g><g transform="translate(110 117) rotate(44.72727272727273)"><ellipse cx="0" cy="-21" rx="5" ry="28" fill="#b1a0c7" stroke="#857393" stroke-width="1.6"/></g><g transform="translate(110 117) rotate(77.45454545454545)"><ellipse cx="0" cy="-21" rx="5" ry="28" fill="#b1a0c7" stroke="#857393" stroke-width="1.6"/></g><g transform="translate(110 117) rotate(110.18181818181819)"><ellipse cx="0" cy="-21" rx="5" ry="28" fill="#b1a0c7" stroke="#857393" stroke-width="1.6"/></g><g transform="translate(110 117) rotate(142.9090909090909)"><ellipse cx="0" cy="-21" rx="5" ry="28" fill="#b1a0c7" stroke="#857393" stroke-width="1.6"/></g><g transform="translate(110 117) rotate(175.63636363636363)"><ellipse cx="0" cy="-21" rx="5" ry="28" fill="#b1a0c7" stroke="#857393" stroke-width="1.6"/></g><g transform="translate(110 117) rotate(208.36363636363637)"><ellipse cx="0" cy="-21" rx="5" ry="28" fill="#b1a0c7" stroke="#857393" stroke-width="1.6"/></g><g transform="translate(110 117) rotate(241.0909090909091)"><ellipse cx="0" cy="-21" rx="5" ry="28" fill="#b1a0c7" stroke="#857393" stroke-width="1.6"/></g><g transform="translate(110 117) rotate(273.8181818181818)"><ellipse cx="0" cy="-21" rx="5" ry="28" fill="#b1a0c7" stroke="#857393" stroke-width="1.6"/></g><g transform="translate(110 117) rotate(306.54545454545456)"><ellipse cx="0" cy="-21" rx="5" ry="28" fill="#b1a0c7" stroke="#857393" stroke-width="1.6"/></g><g transform="translate(110 117) rotate(339.27272727272725)"><ellipse cx="0" cy="-21" rx="5" ry="28" fill="#b1a0c7" stroke="#857393" stroke-width="1.6"/></g></g><ellipse cx="110" cy="118" rx="22" ry="22" fill="#e7d39b" stroke="#b4a779" stroke-width="2"/><g transform="translate(110 118) scale(0.7)"><path d="M-25-3q6 5 12 0m26 0q6 5 12 0" fill="none" stroke="#594940" stroke-width="2.5" stroke-linecap="round" stroke-linejoin="round"/><path d="M-5 14q5-3 10 0" fill="none" stroke="#594940" stroke-width="1.8" stroke-linecap="round" stroke-linejoin="round"/><ellipse cx="-29" cy="11" rx="6" ry="2.8" fill="#e68f95" stroke="none" stroke-width="2"/><ellipse cx="29" cy="11" rx="6" ry="2.8" fill="#e68f95" stroke="none" stroke-width="2"/></g></svg>