<svg xmlns="http://www.w3.org/2000/svg" width="220" height="220" viewBox="0 0 220 220" role="img" data-character="sea-lavender" data-stage="4"><title>포기 해국싹</title><ellipse cx="110" cy="199" rx="52" ry="5" fill="#d9d2c1" stroke="none" stroke-width="2"/><ellipse cx="110" cy="184" rx="58" ry="9" fill="#e8dfcf" stroke="none" stroke-width="2"/><path d="M61 184q19-5 34 0m27 0q22-5 36 0" fill="none" stroke="#d1c0a7" stroke-width="1.3" stroke-linecap="round" stroke-linejoin="round"/><g data-part="roots"><path d="M110 173q-1 12 5 23m-5-13-11 7m12-5 10 6" fill="none" stroke="#c3a57b" stroke-width="1.8" stroke-linecap="round" stroke-linejoin="round"/><path d="M99 169q-8 13-21 20m8-8-2 11m35-22q10 14 26 19m-9-8 2 10" fill="none" stroke="#c3a57b" stroke-width="1.5" stroke-linecap="round" stroke-linejoin="round"/></g><g transform="translate(110 171) rotate(-70)"><ellipse cx="0" cy="-23" rx="15" ry="33" fill="#a2b497" stroke="#7c9777" stroke-width="1.8"/><path d="M0 0V-46" fill="none" stroke="#7c9777" stroke-width="1" stroke-linecap="round" stroke-linejoin="round"/></g><g transform="translate(110 171) rotate(-35)"><ellipse cx="0" cy="-23" rx="15" ry="33" fill="#a2b497" stroke="#7c9777" stroke-width="1.8"/><path d="M0 0V-46" fill="none" stroke="#7c9777" stroke-width="1" stroke-linecap="round" stroke-linejoin="round"/></g><g transform="translate(110 171) rotate(0)"><ellipse cx="0" cy="-23" rx="15" ry="33" fill="#a2b497" stroke="#7c9777" stroke-width="1.8"/><path d="M0 0V-46" fill="none" stroke="#7c9777" stroke-width="1" stroke-linecap="round" stroke-linejoin="round"/></g><g transform="translate(110 171) rotate(35)"><ellipse cx="0" cy="-23" rx="15" ry="33" fill="#a2b497" stroke="#7c9777" stroke-width="1.8"/><path d="M0 0V-46" fill="none" stroke="#7c9777" stroke-width="1" stroke-linecap="round" stroke-linejoin="round"/></g><g transform="translate(110 171) rotate(70)"><ellipse cx="0" cy="-23" rx="15" ry="33" fill="#a2b497" stroke="#7c9777" stroke-width="1.8"/><path d="M0 0V-46" fill="none" stroke="#7c9777" stroke-width="1" stroke-linecap="round" stroke-linejoin="round"/></g><ellipse cx="110" cy="156" rx="28" ry="24" fill="#b8c8a7" stroke="#7c9777" stroke-width="1.8"/><g transform="translate(110 155) scale(0.7)"><g class="sproutEyes"><path d="M-25 0q6-9 12 0m26 0q6-9 12 0" fill="none" stroke="#594940" stroke-width="2.8" stroke-linecap="round" stroke-linejoin="round"/></g><path d="M-7 11q7 13 14 0" fill="none" stroke="#594940" stroke-width="2.2" stroke-linecap="round" stroke-linejoin="round"/><ellipse cx="-29" cy="11" rx="6" ry="2.8" fill="#e6a0a5" stroke="none" stroke-width="2"/><ellipse cx="29" cy="11" rx="6" ry="2.8" fill="#e6a0a5" stroke="none" stroke-width="2"/></g></svg>