<svg xmlns="http://www.w3.org/2000/svg" width="220" height="220" viewBox="0 0 220 220" role="img" data-character="barley" data-stage="1"><title>한톨 보리싹</title><ellipse cx="110" cy="199" rx="33" ry="5" fill="#d9d2c1" stroke="none" stroke-width="2"/><path d="M110 161V193" fill="none" stroke="#789863" stroke-width="3" stroke-linecap="round" stroke-linejoin="round"/><ellipse cx="110" cy="149" rx="18" ry="32" fill="#b7c389" stroke="#b2a061" stroke-width="2"/><path d="M110 116q-2-21 8-30" fill="none" stroke="#789863" stroke-width="2.5" stroke-linecap="round" stroke-linejoin="round"/><g transform="translate(111 111) rotate(-30) scale(0.38)"><path d="M0 0Q-10-22 4-49Q22-15 0 0Z" fill="#8aa370" stroke="#6c875b" stroke-width="1.8" stroke-linecap="round" stroke-linejoin="round"/><path d="M0 0 4-36" fill="none" stroke="#6c875b" stroke-width="1" stroke-linecap="round" stroke-linejoin="round"/></g><g transform="translate(110 145) scale(0.68)"><path d="M-25-3q6 5 12 0m26 0q6 5 12 0" fill="none" stroke="#594940" stroke-width="2.5" stroke-linecap="round" stroke-linejoin="round"/><path d="M-7 15q7-7 14 0" fill="none" stroke="#594940" stroke-width="2" stroke-linecap="round" stroke-linejoin="round"/><ellipse cx="-29" cy="11" rx="6" ry="2.8" fill="#e68f95" stroke="none" stroke-width="2"/><ellipse cx="29" cy="11" rx="6" ry="2.8" fill="#e68f95" stroke="none" stroke-width="2"/><path d="M-27 6q-5 7 0 10q5-3 0-10Z" fill="#b0c9d0" stroke="none" stroke-width="2.4" stroke-linecap="round" stroke-linejoin="round"/></g></svg>