<svg xmlns="http://www.w3.org/2000/svg" width="220" height="220" viewBox="0 0 220 220" role="img" data-character="barley" data-stage="5"><title>풋이삭 보리싹</title><ellipse cx="110" cy="199" rx="52" ry="5" fill="#d9d2c1" stroke="none" stroke-width="2"/><ellipse cx="110" cy="184" rx="58" ry="9" fill="#e8dfcf" stroke="none" stroke-width="2"/><path d="M61 184q19-5 34 0m27 0q22-5 36 0" fill="none" stroke="#d1c0a7" stroke-width="1.3" stroke-linecap="round" stroke-linejoin="round"/><g data-part="roots"><path d="M110 173q-1 12 5 23m-5-13-11 7m12-5 10 6" fill="none" stroke="#c3a57b" stroke-width="1.8" stroke-linecap="round" stroke-linejoin="round"/><path d="M99 169q-8 13-21 20m8-8-2 11m35-22q10 14 26 19m-9-8 2 10" fill="none" stroke="#c3a57b" stroke-width="1.5" stroke-linecap="round" stroke-linejoin="round"/></g><ellipse cx="110" cy="157" rx="19" ry="27" fill="#b8c991" stroke="#91a66d" stroke-width="2"/><path d="M110 146V86" fill="none" stroke="#5f865e" stroke-width="2.8" stroke-linecap="round" stroke-linejoin="round"/><g transform="translate(110 142) rotate(-18) scale(0.9)"><path d="M0 0Q-10-22 4-49Q22-15 0 0Z" fill="#8aa370" stroke="#6c875b" stroke-width="1.8" stroke-linecap="round" stroke-linejoin="round"/><path d="M0 0 4-36" fill="none" stroke="#6c875b" stroke-width="1" stroke-linecap="round" stroke-linejoin="round"/></g><g transform="translate(102 168) rotate(-52) scale(1.2)"><path d="M0 0Q-10-22 4-49Q22-15 0 0Z" fill="#8aa370" stroke="#6c875b" stroke-width="1.8" stroke-linecap="round" stroke-linejoin="round"/><path d="M0 0 4-36" fill="none" stroke="#6c875b" stroke-width="1" stroke-linecap="round" stroke-linejoin="round"/></g><g transform="translate(116 166) rotate(45) scale(1.1)"><path d="M0 0Q-10-22 4-49Q22-15 0 0Z" fill="#8aa370" stroke="#6c875b" stroke-width="1.8" stroke-linecap="round" stroke-linejoin="round"/><path d="M0 0 4-36" fill="none" stroke="#6c875b" stroke-width="1" stroke-linecap="round" stroke-linejoin="round"/></g><g transform="translate(101 167) rotate(-85) scale(0.8)"><path d="M0 0Q-10-22 4-49Q22-15 0 0Z" fill="#8aa370" stroke="#6c875b" stroke-width="1.8" stroke-linecap="round" stroke-linejoin="round"/><path d="M0 0 4-36" fill="none" stroke="#6c875b" stroke-width="1" stroke-linecap="round" stroke-linejoin="round"/></g><g transform="translate(118 166) rotate(80) scale(0.8)"><path d="M0 0Q-10-22 4-49Q22-15 0 0Z" fill="#8aa370" stroke="#6c875b" stroke-width="1.8" stroke-linecap="round" stroke-linejoin="round"/><path d="M0 0 4-36" fill="none" stroke="#6c875b" stroke-width="1" stroke-linecap="round" stroke-linejoin="round"/></g><path d="M110 176Q76 150 76 105" fill="none" stroke="#5f865e" stroke-width="2.4" stroke-linecap="round" stroke-linejoin="round"/><path d="M76 104V65" fill="none" stroke="#92a56b" stroke-width="1.6" stroke-linecap="round" stroke-linejoin="round"/><ellipse cx="71" cy="72" rx="5" ry="9" fill="#a7b97b" stroke="#819764" stroke-width="1.2"/><ellipse cx="81" cy="72" rx="5" ry="9" fill="#a7b97b" stroke="#819764" stroke-width="1.2"/><ellipse cx="71" cy="84" rx="5" ry="9" fill="#a7b97b" stroke="#819764" stroke-width="1.2"/><ellipse cx="81" cy="84" rx="5" ry="9" fill="#a7b97b" stroke="#819764" stroke-width="1.2"/><ellipse cx="71" cy="96" rx="5" ry="9" fill="#a7b97b" stroke="#819764" stroke-width="1.2"/><ellipse cx="81" cy="96" rx="5" ry="9" fill="#a7b97b" stroke="#819764" stroke-width="1.2"/><path d="M110 176Q111 150 111 105" fill="none" stroke="#5f865e" stroke-width="2.4" stroke-linecap="round" stroke-linejoin="round"/><path d="M111 104V65" fill="none" stroke="#92a56b" stroke-width="1.6" stroke-linecap="round" stroke-linejoin="round"/><ellipse cx="106" cy="72" rx="5" ry="9" fill="#a7b97b" stroke="#819764" stroke-width="1.2"/><ellipse cx="116" cy="72" rx="5" ry="9" fill="#a7b97b" stroke="#819764" stroke-width="1.2"/><ellipse cx="106" cy="84" rx="5" ry="9" fill="#a7b97b" stroke="#819764" stroke-width="1.2"/><ellipse cx="116" cy="84" rx="5" ry="9" fill="#a7b97b" stroke="#819764" stroke-width="1.2"/><ellipse cx="106" cy="96" rx="5" ry="9" fill="#a7b97b" stroke="#819764" stroke-width="1.2"/><ellipse cx="116" cy="96" rx="5" ry="9" fill="#a7b97b" stroke="#819764" stroke-width="1.2"/><path d="M110 176Q146 150 146 105" fill="none" stroke="#5f865e" stroke-width="2.4" stroke-linecap="round" stroke-linejoin="round"/><path d="M146 104V65" fill="none" stroke="#92a56b" stroke-width="1.6" stroke-linecap="round" stroke-linejoin="round"/><ellipse cx="141" cy="72" rx="5" ry="9" fill="#a7b97b" stroke="#819764" stroke-width="1.2"/><ellipse cx="151" cy="72" rx="5" ry="9" fill="#a7b97b" stroke="#819764" stroke-width="1.2"/><ellipse cx="141" cy="84" rx="5" ry="9" fill="#a7b97b" stroke="#819764" stroke-width="1.2"/><ellipse cx="151" cy="84" rx="5" ry="9" fill="#a7b97b" stroke="#819764" stroke-width="1.2"/><ellipse cx="141" cy="96" rx="5" ry="9" fill="#a7b97b" stroke="#819764" stroke-width="1.2"/><ellipse cx="151" cy="96" rx="5" ry="9" fill="#a7b97b" stroke="#819764" stroke-width="1.2"/><g transform="translate(110 149) scale(0.57)"><g class="sproutEyes"><path d="M-25-3q6 5 12 0m26 0q6 5 12 0" fill="none" stroke="#594940" stroke-width="2.5" stroke-linecap="round" stroke-linejoin="round"/></g><path d="M-7 15q7-7 14 0" fill="none" stroke="#594940" stroke-width="2" stroke-linecap="round" stroke-linejoin="round"/><ellipse cx="-29" cy="11" rx="6" ry="2.8" fill="#e6a0a5" stroke="none" stroke-width="2"/><ellipse cx="29" cy="11" rx="6" ry="2.8" fill="#e6a0a5" stroke="none" stroke-width="2"/><path d="M-27 6q-5 7 0 10q5-3 0-10Z" fill="#b0c9d0" stroke="none" stroke-width="2.4" stroke-linecap="round" stroke-linejoin="round"/></g></svg>