<svg xmlns="http://www.w3.org/2000/svg" width="220" height="220" viewBox="0 0 220 220" role="img"><ellipse cx="110" cy="198" rx="55" ry="8" fill="#d8d2bd" opacity=".42"/><path d="M73 91 C91 77,139 80,151 104 C163 127,153 174,127 191 C105 205,77 187,69 160 C61 134,56 105,73 91Z" fill="#b783aa" stroke="#925d85" stroke-width="3"/><path d="M78 106 C91 95,106 92,118 94" fill="none" stroke="#dcb8d1" stroke-width="7" opacity=".18" stroke-linecap="round"/><path d="M80 140q8-9 16 0m29 0q8-9 16 0" fill="none" stroke="#574941" stroke-width="3.2" stroke-linecap="round"/><ellipse cx="74" cy="154" rx="7" ry="3.5" fill="#ef9caa" opacity=".55"/><ellipse cx="147" cy="154" rx="7" ry="3.5" fill="#ef9caa" opacity=".55"/><path d="M101 153q9 12 18 0" fill="none" stroke="#574941" stroke-width="3" stroke-linecap="round"/></svg>