<svg xmlns="http://www.w3.org/2000/svg" width="220" height="220" viewBox="0 0 220 220" role="img"><ellipse cx="110" cy="196" rx="55" ry="9" fill="#d8d2bd" opacity=".42"/><path d="M110 88 C68 46,64 35,110 68 C154 20,160 55,110 88Z" fill="#82a36d" stroke="#668756" stroke-width="3"/><path d="M110 86V46" stroke="#668756" stroke-width="3" stroke-linecap="round"/><circle cx="110" cy="43" r="9" fill="#e37c42" stroke="#c27850" stroke-width="2"/><ellipse cx="107" cy="39" rx="2.5" ry="3.5" fill="#f6c69e" opacity=".7"/><path d="M32 145 C32 81,63.2 64,110 71 C156.8 64,188 81,188 145 C188 188,156.8 194,110 193 C63.2 194,32 188,32 145Z" fill="#efa472" stroke="#c27850" stroke-width="3"/><ellipse cx="78.8" cy="124" rx="17.94" ry="28.08" fill="#f6c69e" opacity=".38"/><ellipse cx="85" cy="137" rx="3" ry="4" fill="#574941"/><ellipse cx="135" cy="137" rx="3" ry="4" fill="#574941"/><ellipse cx="70" cy="151" rx="7" ry="3" fill="#e78c87" opacity=".58"/><ellipse cx="150" cy="151" rx="7" ry="3" fill="#e78c87" opacity=".58"/><path d="M101 153q9 12 18 0" fill="none" stroke="#574941" stroke-width="3" stroke-linecap="round"/></svg>