<svg xmlns="http://www.w3.org/2000/svg" width="220" height="220" viewBox="0 0 220 220" role="img"><ellipse cx="110" cy="196" rx="55" ry="9" fill="#d8d2bd" opacity=".42"/><path d="M110 88 C71 56,67 40,110 68 C151 25,157 60,110 88Z" fill="#82a36d" stroke="#668756" stroke-width="3"/><path d="M110 86V49" stroke="#668756" stroke-width="3" stroke-linecap="round"/><circle cx="110" cy="43" r="9" fill="#e37c42" stroke="#c27850" stroke-width="2"/><ellipse cx="107" cy="39" rx="2.5" ry="3.5" fill="#f6c69e" opacity=".7"/><path d="M43 145 C43 86.5,69.80000000000001 69.5,110 76.5 C150.2 69.5,177 86.5,177 145 C177 188,150.2 194,110 193 C69.80000000000001 194,43 188,43 145Z" fill="#efa472" stroke="#c27850" stroke-width="3"/><ellipse cx="83.2" cy="124" rx="15.41" ry="24.119999999999997" fill="#f6c69e" opacity=".38"/><path d="M77 137q8-11 16 0m34 0q8-11 16 0" fill="none" stroke="#574941" stroke-width="3.5" stroke-linecap="round"/><ellipse cx="70" cy="151" rx="7" ry="3" fill="#e78c87" opacity=".58"/><ellipse cx="150" cy="151" rx="7" ry="3" fill="#e78c87" opacity=".58"/><path d="M101 153q9 12 18 0" fill="none" stroke="#574941" stroke-width="3" stroke-linecap="round"/></svg>