<svg xmlns="http://www.w3.org/2000/svg" width="220" height="220" viewBox="30 65 160 160" role="img" data-character="persimmon" data-stage="2"><title>깨어난 감싹</title><ellipse cx="110" cy="199" rx="52" ry="5" fill="#d9d2c1" stroke="none" stroke-width="2"/><ellipse cx="110" cy="184" rx="58" ry="9" fill="#e8dfcf" stroke="none" stroke-width="2"/><path d="M61 184q19-5 34 0m27 0q22-5 36 0" fill="none" stroke="#d1c0a7" stroke-width="1.3" stroke-linecap="round" stroke-linejoin="round"/><g data-part="roots"><path d="M110 173q-1 12 5 23m-5-13-11 7m12-5 10 6" fill="none" stroke="#c3a57b" stroke-width="1.8" stroke-linecap="round" stroke-linejoin="round"/></g><path d="M110 127Q87 144 91 169Q110 188 129 169Q135 145 110 127Z" fill="#a98868" stroke="#a78862" stroke-width="2.4" stroke-linecap="round" stroke-linejoin="round"/><path d="M108 130q-7 15-4 21m7 17 1 10" fill="none" stroke="#8c7051" stroke-width="1.4" stroke-linecap="round" stroke-linejoin="round"/><path d="M113 136q-14-13-5-29" fill="none" stroke="#8da96c" stroke-width="4" stroke-linecap="round" stroke-linejoin="round"/><path d="M110 116q-9-5-14 2" fill="none" stroke="#8da96c" stroke-width="3" stroke-linecap="round" stroke-linejoin="round"/><g transform="translate(108 110) rotate(15) scale(0.31360000000000005)"><g transform="translate(0 0) rotate(0) scale(1)"><path d="M0 0Q-5-27 21-32Q25-8 0 0Z" fill="#8da96c" stroke="#698357" stroke-width="1.8" stroke-linecap="round" stroke-linejoin="round"/><path d="M0 0 15-23" fill="none" stroke="#698357" stroke-width="1.2" stroke-linecap="round" stroke-linejoin="round"/></g></g><path d="M125 129l-6 11 7 8" fill="none" stroke="#eee1ce" stroke-width="1.8" stroke-linecap="round" stroke-linejoin="round"/><g transform="translate(110 157) scale(0.7)"><g class="sproutEyes"><path d="M-25-3q6 5 12 0m26 0q6 5 12 0" fill="none" stroke="#594940" stroke-width="2.5" stroke-linecap="round" stroke-linejoin="round"/></g><path d="M-7 15q7-7 14 0" fill="none" stroke="#594940" stroke-width="2" stroke-linecap="round" stroke-linejoin="round"/><ellipse cx="-29" cy="11" rx="6" ry="2.8" fill="#e6a0a5" stroke="none" stroke-width="2"/><ellipse cx="29" cy="11" rx="6" ry="2.8" fill="#e6a0a5" stroke="none" stroke-width="2"/><path d="M-27 6q-5 7 0 10q5-3 0-10Z" fill="#b0c9d0" stroke="none" stroke-width="2.4" stroke-linecap="round" stroke-linejoin="round"/></g></svg>